<?xml version="1.0" standalone="no"?><!DOCTYPE svg PUBLIC "-//W3C//DTD SVG 1.1//EN" "http://www.w3.org/Graphics/SVG/1.1/DTD/svg11.dtd"><svg t="1728964658863" class="icon" viewBox="0 0 1024 1024" version="1.1" xmlns="http://www.w3.org/2000/svg" p-id="12705" xmlns:xlink="http://www.w3.org/1999/xlink" width="200" height="200"><path d="M908 161.3L862.7 116a3.9 3.9 0 0 0-2.8-1.2 3.8 3.8 0 0 0-2.8 1.2L767 206.1a193 193 0 0 0-243.7 23.1l-82 82a12 12 0 0 0 0 17l254.5 254.5a12.4 12.4 0 0 0 8.5 3.5 12 12 0 0 0 8.5-3.5l82-82c66-66 73.7-169.1 23.1-243.7l90.1-90.1a4 4 0 0 0 0-5.6zM743.9 449.8l-39.6 39.6-169.7-169.7 39.6-39.6a120 120 0 0 1 169.7 169.7z m-198 84.8a3.7 3.7 0 0 0-2.8-1.1 3.8 3.8 0 0 0-2.8 1.1L480.9 594 430 543.1l59.4-59.4a4 4 0 0 0 0-5.6l-45.3-45.3a3.9 3.9 0 0 0-2.8-1.2 3.8 3.8 0 0 0-2.8 1.2l-59.4 59.4-50.9-50.9a12.4 12.4 0 0 0-8.5-3.5 12 12 0 0 0-8.5 3.5l-82 82c-66 66-73.7 169.1-23.1 243.7L116 857.1a4 4 0 0 0 0 5.6l45.3 45.3a3.9 3.9 0 0 0 2.8 1.2 3.8 3.8 0 0 0 2.8-1.2l90.1-90.1a193 193 0 0 0 243.7-23.1l82-82a12 12 0 0 0 0-17l-50.9-50.9 59.4-59.4a3.9 3.9 0 0 0 0-5.6z m-96.1 209.3a120 120 0 0 1-169.7-169.7l39.6-39.6 169.7 169.7z" p-id="12706"></path></svg>