<?xml version="1.0" standalone="no"?><!DOCTYPE svg PUBLIC "-//W3C//DTD SVG 1.1//EN" "http://www.w3.org/Graphics/SVG/1.1/DTD/svg11.dtd"><svg t="1728963541450" class="icon" viewBox="0 0 1024 1024" version="1.1" xmlns="http://www.w3.org/2000/svg" p-id="7771" xmlns:xlink="http://www.w3.org/1999/xlink" width="200" height="200"><path d="M1001.642667 793.813333c-7.850667-13.866667-26.026667-37.546667-93.141334-83.2a1096.234667 1096.234667 0 0 0-125.141333-74.154666c-30.592-82.773333-89.813333-190.122667-176.256-319.36C514.048 177.92 405.973333 119.296 285.226667 142.506667c-13.226667-13.056-26.837333-25.6-40.96-37.674667-30.421333-26.154667-105.045333-48.341333-147.925334-44.074667-19.456 1.92-34.048 9.045333-43.392 21.077334-21.674667 27.904-14.421333 68.053333 85.504 198.912 19.029333 55.594667 23.082667 84.650667 23.082667 99.285333 0 30.933333 15.957333 66.389333 49.962667 110.762667l-32 109.482666c-28.501333 97.792 23.338667 224.298667 71.637333 268.373334 25.770667 23.552 47.445333 20.053333 58.197333 15.872 21.461333-8.448 38.826667-29.482667 50.005334-89.514667 5.76 14.08 11.818667 29.312 18.218666 45.610667 34.56 87.722667 68.352 136.277333 106.325334 152.746666a32 32 0 0 0 25.472-58.709333c-9.386667-4.096-35.328-23.722667-72.32-117.504-31.146667-79.146667-53.845333-132.053333-69.376-161.877333a32 32 0 0 0-60.330667 13.44c-3.84 91.050667-13.056 130.432-19.2 147.029333-26.496-30.464-68.138667-125.994667-47.232-197.546667 20.778667-71.253333 32.981333-112.938667 36.650667-125.226666a31.914667 31.914667 0 0 0-5.888-29.312C229.973333 412.501333 225.493333 388.096 225.493333 379.946667c0-29.44-9.258667-70.4-28.288-125.141334a31.104 31.104 0 0 0-4.778666-8.874666C138.581333 175.786667 118.826667 140.714667 111.573333 124.032c25.642667 1.237333 74.325333 15.061333 91.008 29.354667 17.109333 14.592 33.493333 30.08 49.066667 46.336a31.914667 31.914667 0 0 0 31.189333 8.917333c100.181333-25.898667 188.928 21.162667 271.104 144 87.765333 131.328 146.133333 238.08 173.397334 317.226667a32 32 0 0 0 16.384 18.432 1004.544 1004.544 0 0 1 128.768 75.264c7.424 4.992 14.08 9.685333 20.053333 13.994666h-98.816a32 32 0 0 0-24.32 52.736 3098.752 3098.752 0 0 0 97.834667 110.506667 32 32 0 1 0 46.549333-43.904c-16.981333-18.176-33.706667-36.608-50.090667-55.338667h110.08a32 32 0 0 0 27.861334-47.786666v0.042666zM320 289.493333c12.672 21.76 22.485333 37.333333 29.354667 46.762667 8.277333 16.256 21.162667 29.226667 29.44 45.525333l2.005333-1.962666c14.506667-9.941333 25.898667-49.493333 2.730667-75.52-12.032-18.133333-51.029333-17.621333-63.530667-14.805334z" p-id="7772"></path></svg>