<?xml version="1.0" standalone="no"?><!DOCTYPE svg PUBLIC "-//W3C//DTD SVG 1.1//EN" "http://www.w3.org/Graphics/SVG/1.1/DTD/svg11.dtd"><svg t="1728963490259" class="icon" viewBox="0 0 1024 1024" version="1.1" xmlns="http://www.w3.org/2000/svg" p-id="4967" xmlns:xlink="http://www.w3.org/1999/xlink" width="200" height="200"><path d="M981.333333 444.416l-0.256 87.04c0 12.202667-8.064 24.405333-24.106666 33.706667l0.256-86.997334c16.042667-9.301333 24.064-21.546667 24.106666-33.749333zM43.349333 530.944l0.213334-87.04c0 12.416 8.149333 24.832 24.533333 34.261333l-0.256 87.04c-16.384-9.472-24.533333-21.845333-24.490667-34.261333z m913.877334-52.778667l-0.256 87.04-384.597334 223.488 0.256-87.04 384.597334-223.488z m-502.016 223.488l-0.256 87.04-387.114667-223.488 0.256-87.04 387.114667 223.488z m117.418666 0l-0.256 87.04c-32.341333 18.773333-84.906667 18.773333-117.418666 0l0.256-87.04c32.512 18.773333 85.077333 18.773333 117.418666 0zM981.333333 598.613333l-0.256 87.04c0 12.202667-8.064 24.448-24.106666 33.749334l0.256-87.04c16.042667-9.301333 24.064-21.504 24.106666-33.706667zM43.349333 685.226667l0.213334-87.04c0 12.373333 8.149333 24.789333 24.533333 34.261333l-0.256 87.04c-16.384-9.472-24.533333-21.888-24.490667-34.261333z m913.877334-52.821334l-0.256 87.04-384.597334 223.488 0.256-87.04 384.597334-223.488zM455.210667 855.893333l-0.256 87.04L67.84 719.36l0.256-87.04 387.114667 223.530667z m117.418666 0l-0.256 87.04c-32.341333 18.773333-84.906667 18.773333-117.418666 0l0.256-87.04c32.512 18.773333 85.077333 18.773333 117.418666 0z m409.728-520.106666l-0.554666 53.290666-0.042667 0.64 0.554667-53.248 0.042666-0.682666m0.682667 0.682666l-0.597333 53.248a8.746667 8.746667 0 0 1-1.877334 4.394667l0.554667-53.248a8.832 8.832 0 0 0 1.92-4.394667m-0.085333 4.394667l-0.469334 53.248a19.114667 19.114667 0 0 1-3.84 4.266667l0.469334-53.248a19.029333 19.029333 0 0 0 3.84-4.266667m-2.048 4.266667l-0.298667 53.248a29.653333 29.653333 0 0 1-3.968 4.352l0.298667-53.248a29.269333 29.269333 0 0 0 3.968-4.352m-3.072 4.352l-0.213334 53.248a37.290667 37.290667 0 0 1-4.053333 4.565333l0.213333-53.290667a37.248 37.248 0 0 0 4.053334-4.522666m-4.096 4.522666l-0.170667 53.290667c-1.450667 1.792-2.986667 3.498667-4.693333 5.077333l0.128-53.248c1.706667-1.578667 3.285333-3.285333 4.693333-5.12m-4.693333 5.12l-0.170667 53.248c-2.730667 2.517333-5.973333 4.906667-9.642667 7.125334l0.170667-53.248c3.669333-2.218667 6.912-4.608 9.642667-7.125334m-6.570667 7.125334l-0.554667 53.248-3.584 0.554666 0.597334-53.248 3.541333-0.554666m-897.109333 0.554666l-0.170667 53.248C50.133333 411.392 42.666667 400 42.666667 388.608l0.170666-53.248c-0.042667 11.392 7.466667 22.784 22.485334 31.445333m893.098666 0l-0.170666 53.248-391.381334 227.413334 0.170667-53.205334 391.381333-227.456z m-499.2 227.413334l-0.128 53.290666-393.941333-227.413333 0.170667-53.290667 393.941333 227.413334z m107.818667 0l-0.170667 53.290666a86.186667 86.186667 0 0 1-16.682666 7.338667l0.128-53.248c5.973333-1.962667 11.648-4.394667 16.725333-7.338667m-16.725333 7.338667l-0.128 53.248a110.208 110.208 0 0 1-14.421334 3.584l0.128-53.248c4.906667-0.853333 9.728-2.090667 14.421334-3.584m-14.421334 3.584l-0.128 53.248a124.330667 124.330667 0 0 1-9.728 1.365333l0.128-53.248c3.285333-0.341333 6.528-0.810667 9.728-1.365333m-9.728 1.365333l-0.128 53.248a128.554667 128.554667 0 0 1-8.448 0.554667l0.128-53.248c2.816-0.085333 5.632-0.298667 8.448-0.554667m-8.448 0.554667l-0.128 53.248a131.712 131.712 0 0 1-7.808 0l0.128-53.205333c2.602667 0.042667 5.205333 0.042667 7.808-0.042667m-7.808 0l-0.128 53.290667a135.210667 135.210667 0 0 1-7.509333-0.426667l0.128-53.248c2.517333 0.213333 4.992 0.341333 7.509333 0.426667m-7.509333-0.426667l-0.128 53.290667a129.664 129.664 0 0 1-7.424-0.853334l0.170667-53.248c2.432 0.341333 4.906667 0.64 7.381333 0.853334m-7.381333-0.853334l-0.170667 53.248a121.301333 121.301333 0 0 1-7.552-1.28l0.170667-53.290666c2.474667 0.512 4.992 0.938667 7.552 1.28m-7.552-1.28l-0.170667 53.248a112.981333 112.981333 0 0 1-7.936-1.92l0.128-53.290667c2.602667 0.768 5.248 1.408 7.978667 1.962667m-7.978667-1.962667l-0.128 53.290667a99.84 99.84 0 0 1-9.258667-3.157334l0.128-53.248c3.072 1.194667 6.144 2.261333 9.258667 3.114667m-9.258667-3.114667l-0.128 53.248a83.2 83.2 0 0 1-11.008-5.248l0.170667-53.248c3.413333 1.962667 7.125333 3.712 10.965333 5.248m487.850667-295.125333l-393.941333-227.413333c-29.866667-17.28-78.122667-17.28-107.776-0.042667l-391.381334 227.413333c-29.696 17.28-29.525333 45.226667 0.341334 62.464l393.941333 227.413334c29.866667 17.28 78.08 17.28 107.776 0l391.381333-227.413334c29.653333-17.237333 29.482667-45.226667-0.341333-62.421333z m-524.8-152.448l66.56 21.162667 66.133333-39.082667-21.248 55.168 62.890667 25.173333-79.701333 12.885334-27.264 54.613333-28.032-47.146667-79.701334 8.618667 62.378667-42.069333-22.016-49.322667zM238.464 345.045333c-14.250667-8.192-23.850667-19.2-25.941333-31.658666-4.906667-28.501333 31.018667-53.845333 80.213333-56.576 27.648-1.536 53.632 4.437333 71.936 14.976 14.208 8.234667 23.808 19.2 25.941333 31.701333 4.864 28.501333-31.061333 53.802667-80.213333 56.533333-27.690667 1.536-53.674667-4.394667-71.936-14.933333z m285.909333 183.125334l-173.909333-100.437334 236.586667-36.736-62.677334 137.173334z m173.909334-117.077334l-143.573334-82.901333 142.634667-82.901333 143.616 82.901333-142.677333 82.901333z m283.050666 33.28l-0.256 87.04c0 12.245333-8.064 24.448-24.106666 33.792l0.256-87.04c16.042667-9.301333 24.064-21.546667 24.106666-33.749333z m-937.984 86.613334l0.213334-87.04c0 12.373333 8.149333 24.746667 24.533333 34.218666l-0.256 87.04c-16.384-9.472-24.533333-21.845333-24.490667-34.261333z m913.877334-52.821334l-0.256 87.04-384.597334 223.488 0.256-87.04 384.597334-223.488z m-502.016 223.488l-0.256 87.04-387.114667-223.488 0.256-87.04 387.114667 223.488z m117.418666 0l-0.256 87.04c-32.341333 18.773333-84.906667 18.773333-117.418666 0l0.256-87.04c32.512 18.773333 85.077333 18.773333 117.418666 0zM981.333333 598.613333l-0.256 87.04c0 12.202667-8.064 24.448-24.106666 33.749334l0.256-87.04c16.042667-9.301333 24.064-21.504 24.106666-33.706667zM43.349333 685.226667l0.213334-87.04c0 12.373333 8.149333 24.789333 24.533333 34.261333l-0.256 87.04c-16.384-9.472-24.533333-21.888-24.490667-34.261333z m913.877334-52.821334l-0.256 87.04-384.597334 223.488 0.256-87.04 384.597334-223.488zM455.210667 855.893333l-0.256 87.04L67.84 719.36l0.256-87.04 387.114667 223.530667z m117.418666 0l-0.256 87.04c-32.341333 18.773333-84.906667 18.773333-117.418666 0l0.256-87.04c32.512 18.773333 85.077333 18.773333 117.418666 0z m409.728-520.106666l-0.554666 53.290666-0.042667 0.64 0.554667-53.248 0.042666-0.682666m0.682667 0.682666l-0.597333 53.248a8.746667 8.746667 0 0 1-1.877334 4.394667l0.554667-53.248a8.832 8.832 0 0 0 1.92-4.394667m-0.085333 4.394667l-0.469334 53.248a19.114667 19.114667 0 0 1-3.84 4.266667l0.469334-53.248a19.029333 19.029333 0 0 0 3.84-4.266667m-2.048 4.266667l-0.298667 53.248a29.653333 29.653333 0 0 1-3.968 4.352l0.298667-53.248a29.269333 29.269333 0 0 0 3.968-4.352m-3.072 4.352l-0.213334 53.248a37.290667 37.290667 0 0 1-4.053333 4.565333l0.213333-53.290667a37.248 37.248 0 0 0 4.053334-4.522666m-4.096 4.522666l-0.170667 53.290667c-1.450667 1.792-2.986667 3.498667-4.693333 5.077333l0.128-53.248c1.706667-1.578667 3.285333-3.285333 4.693333-5.12m-4.693333 5.12l-0.170667 53.248c-2.730667 2.517333-5.973333 4.906667-9.642667 7.125334l0.170667-53.248c3.669333-2.218667 6.912-4.608 9.642667-7.125334m-6.570667 7.125334l-0.554667 53.248-3.584 0.554666 0.597334-53.248 3.541333-0.554666m-897.109333 0.554666l-0.170667 53.248C50.133333 411.392 42.666667 400 42.666667 388.608l0.170666-53.248c-0.042667 11.392 7.466667 22.784 22.485334 31.445333m893.098666 0l-0.170666 53.248-391.381334 227.413334 0.170667-53.205334 391.381333-227.456z m-499.2 227.413334l-0.128 53.290666-393.941333-227.413333 0.170667-53.290667 393.941333 227.413334z m107.818667 0l-0.170667 53.290666a86.186667 86.186667 0 0 1-16.682666 7.338667l0.128-53.248c5.973333-1.962667 11.648-4.394667 16.725333-7.338667m-16.725333 7.338667l-0.128 53.248a110.208 110.208 0 0 1-14.421334 3.584l0.128-53.248c4.906667-0.853333 9.728-2.090667 14.421334-3.584m-14.421334 3.584l-0.128 53.248a124.330667 124.330667 0 0 1-9.728 1.365333l0.128-53.248c3.285333-0.341333 6.528-0.810667 9.728-1.365333m-9.728 1.365333l-0.128 53.248a128.554667 128.554667 0 0 1-8.448 0.554667l0.128-53.248c2.816-0.085333 5.632-0.298667 8.448-0.554667m-8.448 0.554667l-0.128 53.248a131.712 131.712 0 0 1-7.808 0l0.128-53.205333c2.602667 0.042667 5.205333 0.042667 7.808-0.042667m-7.808 0l-0.128 53.290667a135.210667 135.210667 0 0 1-7.509333-0.426667l0.128-53.248c2.517333 0.213333 4.992 0.341333 7.509333 0.426667m-7.509333-0.426667l-0.128 53.290667a129.664 129.664 0 0 1-7.424-0.853334l0.170667-53.248c2.432 0.341333 4.906667 0.64 7.381333 0.853334m-7.381333-0.853334l-0.170667 53.248a121.301333 121.301333 0 0 1-7.552-1.28l0.170667-53.290666c2.474667 0.512 4.992 0.938667 7.552 1.28m-7.552-1.28l-0.170667 53.248a112.981333 112.981333 0 0 1-7.936-1.92l0.128-53.290667c2.602667 0.768 5.248 1.408 7.978667 1.962667m-7.978667-1.962667l-0.128 53.290667a99.84 99.84 0 0 1-9.258667-3.157334l0.128-53.248c3.072 1.194667 6.144 2.261333 9.258667 3.114667m-9.258667-3.114667l-0.128 53.248a83.2 83.2 0 0 1-11.008-5.248l0.170667-53.248c3.413333 1.962667 7.125333 3.712 10.965333 5.248m487.850667-295.125333l-393.941333-227.413333c-29.866667-17.28-78.122667-17.28-107.776-0.042667l-391.381334 227.413333c-29.696 17.28-29.525333 45.226667 0.341334 62.464l393.941333 227.413334c29.866667 17.28 78.08 17.28 107.776 0l391.381333-227.413334c29.653333-17.237333 29.482667-45.226667-0.341333-62.421333z m-524.8-152.448l66.56 21.162667 66.133333-39.082667-21.248 55.168 62.890667 25.173333-79.701333 12.885334-27.264 54.613333-28.032-47.146667-79.701334 8.618667 62.378667-42.069333-22.016-49.322667zM238.464 345.045333c-14.250667-8.192-23.850667-19.2-25.941333-31.658666-4.906667-28.501333 31.018667-53.845333 80.213333-56.576 27.648-1.536 53.632 4.437333 71.936 14.976 14.208 8.234667 23.808 19.2 25.941333 31.701333 4.864 28.501333-31.061333 53.802667-80.213333 56.533333-27.690667 1.536-53.674667-4.394667-71.936-14.933333z m285.909333 183.125334l-173.909333-100.437334 236.586667-36.736-62.677334 137.173334z m173.909334-117.077334l-143.573334-82.901333 142.634667-82.901333 143.616 82.901333-142.677333 82.901333z m283.050666 33.28l-0.256 87.04c0 12.245333-8.064 24.448-24.106666 33.792l0.256-87.04c16.042667-9.301333 24.064-21.546667 24.106666-33.749333z m-937.984 86.613334l0.213334-87.04c0 12.373333 8.149333 24.746667 24.533333 34.218666l-0.256 87.04c-16.384-9.472-24.533333-21.845333-24.490667-34.261333z m913.877334-52.821334l-0.256 87.04-384.597334 223.488 0.256-87.04 384.597334-223.488z m-502.016 223.488l-0.256 87.04-387.114667-223.488 0.256-87.04 387.114667 223.488z m117.418666 0l-0.256 87.04c-32.341333 18.773333-84.906667 18.773333-117.418666 0l0.256-87.04c32.512 18.773333 85.077333 18.773333 117.418666 0zM981.333333 598.613333l-0.256 87.04c0 12.202667-8.064 24.448-24.106666 33.749334l0.256-87.04c16.042667-9.301333 24.064-21.504 24.106666-33.706667zM43.349333 685.226667l0.213334-87.04c0 12.373333 8.149333 24.789333 24.533333 34.261333l-0.256 87.04c-16.384-9.472-24.533333-21.888-24.490667-34.261333z m913.877334-52.821334l-0.256 87.04-384.597334 223.488 0.256-87.04 384.597334-223.488zM455.210667 855.893333l-0.256 87.04L67.84 719.36l0.256-87.04 387.114667 223.530667z m117.418666 0l-0.256 87.04c-32.341333 18.773333-84.906667 18.773333-117.418666 0l0.256-87.04c32.512 18.773333 85.077333 18.773333 117.418666 0z m409.728-520.106666l-0.554666 53.290666-0.042667 0.64 0.554667-53.248 0.042666-0.682666m0.682667 0.682666l-0.597333 53.248a8.746667 8.746667 0 0 1-1.877334 4.394667l0.554667-53.248a8.832 8.832 0 0 0 1.92-4.394667m-0.085333 4.394667l-0.469334 53.248a19.114667 19.114667 0 0 1-3.84 4.266667l0.469334-53.248a19.029333 19.029333 0 0 0 3.84-4.266667m-2.048 4.266667l-0.298667 53.248a29.653333 29.653333 0 0 1-3.968 4.352l0.298667-53.248a29.269333 29.269333 0 0 0 3.968-4.352m-3.072 4.352l-0.213334 53.248a37.290667 37.290667 0 0 1-4.053333 4.565333l0.213333-53.290667a37.248 37.248 0 0 0 4.053334-4.522666m-4.096 4.522666l-0.170667 53.290667c-1.450667 1.792-2.986667 3.498667-4.693333 5.077333l0.128-53.248c1.706667-1.578667 3.285333-3.285333 4.693333-5.12m-4.693333 5.12l-0.170667 53.248c-2.730667 2.517333-5.973333 4.906667-9.642667 7.125334l0.170667-53.248c3.669333-2.218667 6.912-4.608 9.642667-7.125334m-6.570667 7.125334l-0.554667 53.248-3.584 0.554666 0.597334-53.248 3.541333-0.554666m-897.109333 0.554666l-0.170667 53.248C50.133333 411.392 42.666667 400 42.666667 388.608l0.170666-53.248c-0.042667 11.392 7.466667 22.784 22.485334 31.445333m893.098666 0l-0.170666 53.248-391.381334 227.413334 0.170667-53.205334 391.381333-227.456z m-499.2 227.413334l-0.128 53.290666-393.941333-227.413333 0.170667-53.290667 393.941333 227.413334z m107.818667 0l-0.170667 53.290666a86.186667 86.186667 0 0 1-16.682666 7.338667l0.128-53.248c5.973333-1.962667 11.648-4.394667 16.725333-7.338667m-16.725333 7.338667l-0.128 53.248a110.208 110.208 0 0 1-14.421334 3.584l0.128-53.248c4.906667-0.853333 9.728-2.090667 14.421334-3.584m-14.421334 3.584l-0.128 53.248a124.330667 124.330667 0 0 1-9.728 1.365333l0.128-53.248c3.285333-0.341333 6.528-0.810667 9.728-1.365333m-9.728 1.365333l-0.128 53.248a128.554667 128.554667 0 0 1-8.448 0.554667l0.128-53.248c2.816-0.085333 5.632-0.298667 8.448-0.554667m-8.448 0.554667l-0.128 53.248a131.712 131.712 0 0 1-7.808 0l0.128-53.205333c2.602667 0.042667 5.205333 0.042667 7.808-0.042667m-7.808 0l-0.128 53.290667a135.210667 135.210667 0 0 1-7.509333-0.426667l0.128-53.248c2.517333 0.213333 4.992 0.341333 7.509333 0.426667m-7.509333-0.426667l-0.128 53.290667a129.664 129.664 0 0 1-7.424-0.853334l0.170667-53.248c2.432 0.341333 4.906667 0.64 7.381333 0.853334m-7.381333-0.853334l-0.170667 53.248a121.301333 121.301333 0 0 1-7.552-1.28l0.170667-53.290666c2.474667 0.512 4.992 0.938667 7.552 1.28m-7.552-1.28l-0.170667 53.248a112.981333 112.981333 0 0 1-7.936-1.92l0.128-53.290667c2.602667 0.768 5.248 1.408 7.978667 1.962667m-7.978667-1.962667l-0.128 53.290667a99.84 99.84 0 0 1-9.258667-3.157334l0.128-53.248c3.072 1.194667 6.144 2.261333 9.258667 3.114667m-9.258667-3.114667l-0.128 53.248a83.2 83.2 0 0 1-11.008-5.248l0.170667-53.248c3.413333 1.962667 7.125333 3.712 10.965333 5.248m487.850667-295.125333l-393.941333-227.413333c-29.866667-17.28-78.122667-17.28-107.776-0.042667l-391.381334 227.413333c-29.696 17.28-29.525333 45.226667 0.341334 62.464l393.941333 227.413334c29.866667 17.28 78.08 17.28 107.776 0l391.381333-227.413334c29.653333-17.237333 29.482667-45.226667-0.341333-62.421333z m-524.8-152.448l66.56 21.162667 66.133333-39.082667-21.248 55.168 62.890667 25.173333-79.701333 12.885334-27.264 54.613333-28.032-47.146667-79.701334 8.618667 62.378667-42.069333-22.016-49.322667zM238.464 345.045333c-14.250667-8.192-23.850667-19.2-25.941333-31.658666-4.906667-28.501333 31.018667-53.845333 80.213333-56.576 27.648-1.536 53.632 4.437333 71.936 14.976 14.208 8.234667 23.808 19.2 25.941333 31.701333 4.864 28.501333-31.061333 53.802667-80.213333 56.533333-27.690667 1.536-53.674667-4.394667-71.936-14.933333z m285.909333 183.125334l-173.909333-100.437334 236.586667-36.736-62.677334 137.173334z m173.909334-117.077334l-143.573334-82.901333 142.634667-82.901333 143.616 82.901333-142.677333 82.901333z" p-id="4968"></path></svg>