<?xml version="1.0" standalone="no"?><!DOCTYPE svg PUBLIC "-//W3C//DTD SVG 1.1//EN" "http://www.w3.org/Graphics/SVG/1.1/DTD/svg11.dtd"><svg t="1728966855342" class="icon" viewBox="0 0 1024 1024" version="1.1" xmlns="http://www.w3.org/2000/svg" p-id="34720" xmlns:xlink="http://www.w3.org/1999/xlink" width="200" height="200"><path d="M896 256H128v585.152C128 871.424 152.576 896 182.848 896h658.304A54.848 54.848 0 0 0 896 841.152V256zM128 64h768a64 64 0 0 1 64 64v768a64 64 0 0 1-64 64H128a64 64 0 0 1-64-64V128a64 64 0 0 1 64-64z m524.032 120a28.032 28.032 0 1 0 0-56 28.032 28.032 0 0 0 0 56z m112 0a28.032 28.032 0 1 0 0-56 28.032 28.032 0 0 0 0 56z m112 0a28.032 28.032 0 1 0 0-56 28.032 28.032 0 0 0 0 56zM764.16 617.728L636.8 751.296a12.544 12.544 0 0 1-9.088 3.904 12.544 12.544 0 0 1-9.088-3.904l-18.176-19.072a13.824 13.824 0 0 1-3.776-9.6c0-3.52 1.408-6.976 3.84-9.472l100.032-104.96-100.096-104.96a13.824 13.824 0 0 1-3.776-9.472c0-3.584 1.408-7.04 3.84-9.6l18.112-19.008a12.544 12.544 0 0 1 9.088-3.968c3.456 0 6.72 1.408 9.152 3.968l127.36 133.504c2.368 2.56 3.712 5.952 3.712 9.6 0 3.52-1.344 6.976-3.776 9.472z m-299.904 213.76l-23.232-6.848a12.672 12.672 0 0 1-8.832-14.848L535.68 392.768c1.664-6.528 8.576-10.24 15.424-8.256l24.896 7.04c6.848 1.92 11.072 8.704 9.408 15.168L478.72 823.488a11.264 11.264 0 0 1-14.464 8z m-40.832-99.264l-18.176 19.072a12.544 12.544 0 0 1-9.088 3.904 12.544 12.544 0 0 1-9.088-3.904l-127.36-133.568a13.824 13.824 0 0 1-3.712-9.536c0-3.584 1.344-7.04 3.776-9.536l127.36-133.504a12.544 12.544 0 0 1 9.088-3.968c3.392 0 6.656 1.408 9.088 3.968l18.176 19.072a13.824 13.824 0 0 1 0 19.072l-100.096 104.96 100.096 104.896c2.432 2.56 3.776 5.952 3.776 9.536 0 3.584-1.344 7.04-3.776 9.536z" p-id="34721"></path></svg>