<?xml version="1.0" standalone="no"?><!DOCTYPE svg PUBLIC "-//W3C//DTD SVG 1.1//EN" "http://www.w3.org/Graphics/SVG/1.1/DTD/svg11.dtd"><svg t="1727243695606" class="icon" viewBox="0 0 1024 1024" version="1.1" xmlns="http://www.w3.org/2000/svg" p-id="16673" xmlns:xlink="http://www.w3.org/1999/xlink" width="200" height="200"><path d="M234.667 320A42.667 42.667 0 1 0 320 320a42.667 42.667 0 1 0-85.333 0zM448 320a42.667 42.667 0 1 0 85.333 0A42.667 42.667 0 1 0 448 320z" p-id="16674"></path><path d="M896 807.68a248.107 248.107 0 0 0 95.36-192c0-133.973-114.133-244.48-261.12-260.907C704 208 558.293 96 384 96 189.867 96 32 234.667 32 405.333A292.053 292.053 0 0 0 147.2 634.24l-28.8 103.893a32 32 0 0 0 46.293 36.48l128-70.613a398.293 398.293 0 0 0 91.734 10.667c10.88 0 21.333 0 32.426-1.494 44.16 96.64 151.68 164.907 277.334 164.907a337.707 337.707 0 0 0 75.52-8.533L874.24 927.36a32 32 0 0 0 46.293-36.48z m-203.307 6.4A241.067 241.067 0 0 1 481.92 701.867l-12.587-29.44-7.68-30.934a170.667 170.667 0 0 1-2.346-26.453c0-103.467 93.44-188.8 213.333-198.187H704a275.2 275.2 0 0 1 31.787 2.987c109.44 16.853 192 98.133 192 195.84a188.587 188.587 0 0 1-85.334 154.027 32 32 0 0 0-12.586 34.773l8.533 30.72-49.067-27.52a32 32 0 0 0-23.893-2.773 272.64 272.64 0 0 1-72.107 9.386zM384 650.667A334.08 334.08 0 0 1 296.32 640a32.213 32.213 0 0 0-23.893 2.987l-71.894 39.68 14.294-51.627a32 32 0 0 0-12.587-34.773A232.747 232.747 0 0 1 96 405.333C96 270.08 225.28 160 384 160c137.813 0 253.227 82.987 281.387 193.28-151.68 12.587-270.72 125.013-270.72 261.76a232.32 232.32 0 0 0 2.986 34.987z" p-id="16675"></path><path d="M611.627 554.667H608a32 32 0 0 0-32 32 32 32 0 1 0 35.627-32zM746.667 586.667a32 32 0 1 0 64 0 32 32 0 1 0-64 0z" p-id="16676"></path></svg>