<?xml version="1.0" standalone="no"?><!DOCTYPE svg PUBLIC "-//W3C//DTD SVG 1.1//EN" "http://www.w3.org/Graphics/SVG/1.1/DTD/svg11.dtd"><svg t="1727242024798" class="icon" viewBox="0 0 1024 1024" version="1.1" xmlns="http://www.w3.org/2000/svg" p-id="11193" xmlns:xlink="http://www.w3.org/1999/xlink" width="200" height="200"><path d="M836.565333 298.453333c-3.242667-12.714667-12.458667-22.314667-22.997333-25.258666C794.88 267.946667 704.042667 256 512.042667 256s-282.794667 11.946667-301.610667 17.194667c-10.410667 2.901333-19.626667 12.501333-22.912 25.258666-4.650667 18.090667-16.810667 93.866667-16.810667 213.546667 0 119.637333 12.16 195.413333 16.810667 213.589333 3.242667 12.672 12.458667 22.272 22.954667 25.173334C229.248 756.053333 320 768 512 768s282.837333-11.946667 301.610667-17.194667c10.410667-2.901333 19.626667-12.501333 22.912-25.258666C841.216 707.456 853.333333 631.466667 853.333333 512s-12.16-195.413333-16.810666-213.546667z m82.645334-21.205333c19.498667 76.032 19.498667 234.752 19.498666 234.752s0 158.72-19.498666 234.752c-10.837333 42.026667-42.538667 75.093333-82.688 86.272C763.605333 853.333333 512 853.333333 512 853.333333s-251.434667 0-324.48-20.309333c-40.32-11.349333-71.978667-44.373333-82.688-86.272C85.333333 670.72 85.333333 512 85.333333 512s0-158.72 19.498667-234.752c10.837333-42.026667 42.538667-75.093333 82.688-86.272C260.608 170.666667 512.042667 170.666667 512.042667 170.666667s251.562667 0 324.48 20.309333c40.277333 11.349333 71.978667 44.373333 82.688 86.272zM426.709333 661.333333v-298.666666l256 149.333333-256 149.333333z" p-id="11194"></path></svg>